<?xml version='1.0' encoding='utf-8'?>
<svg xmlns="http://www.w3.org/2000/svg" width="28.712267mm" height="26.132917mm" viewBox="0 0 28.712267 26.132917" version="1.1" id="svg5"> <defs id="defs2"> </defs> <g id="layer1" transform="translate(-90.643865,-135.43354)"> <g id="g12601" transform="matrix(1.8300479,0,0,1.8300479,-107.02334,56.892358)"> <g id="g9858" transform="translate(40.758446,-40.854934)"> <path id="path1599" style="fill:#fecb00;fill-opacity:1;stroke-width:0.999999" d="m 307.40234,347.5625 c -0.19649,0.003 -0.39364,0.0168 -0.58984,0.0156 -0.60484,-0.004 -1.20836,-0.0256 -1.81055,-0.0645 -0.60219,-0.0388 -1.20359,-0.0952 -1.80273,-0.16601 -0.59914,-0.0709 -1.19533,-0.15617 -1.79102,-0.25586 -0.59568,-0.0997 -1.18942,-0.21258 -1.78125,-0.33789 -0.59182,-0.12532 -1.18197,-0.26244 -1.76953,-0.41016 -0.58756,-0.14772 -1.17297,-0.30574 -1.75586,-0.47266 -0.58289,-0.16691 -1.16437,-0.3425 -1.74218,-0.52539 -0.57782,-0.18288 -1.15228,-0.37272 -1.72461,-0.56836 -1.14467,-0.39128 -2.28672,-0.80791 -3.42774,-1.23437 -1.14101,-0.42646 -2.28115,-0.86368 -3.42187,-1.30078 -1.14073,-0.4371 -2.28199,-0.87367 -3.42578,-1.29688 -1.1438,-0.42321 -2.28922,-0.83396 -3.43946,-1.21875 -0.57512,-0.19239 -1.15116,-0.37845 -1.72851,-0.55664 -0.57736,-0.17818 -1.15631,-0.3469 -1.73633,-0.50781 -0.58002,-0.16091 -1.16104,-0.31255 -1.74414,-0.45313 -0.5831,-0.14057 -1.16926,-0.2715 -1.75586,-0.38867 -0.5866,-0.11717 -1.17511,-0.2218 -1.76563,-0.3125 -0.59052,-0.0907 -1.18248,-0.16736 -1.77734,-0.22851 -0.59486,-0.0612 -1.19139,-0.10622 -1.79102,-0.13477 -0.59962,-0.0285 -1.20183,-0.0403 -1.80664,-0.0332 -0.62263,0.007 -1.24449,0.0361 -1.86523,0.084 -0.62074,0.0479 -1.24105,0.11531 -1.85742,0.20313 -0.61638,0.0878 -1.23031,0.19523 -1.83985,0.32226 -0.60954,0.12703 -1.21421,0.27389 -1.81445,0.43946 -0.60024,0.16557 -1.19473,0.34931 -1.7832,0.55273 -0.12845,0.0444 -0.25305,0.1003 -0.38086,0.14649 2.37664,7.67411 8.76821,15.62065 20.19336,25.36914 4.10218,3.50014 7.68509,6.36328 7.96289,6.36328 1.35243,0 11.85597,-8.95668 17.18945,-14.65821 2.6772,-2.86192 4.93554,-5.65971 6.7832,-8.37109 z" transform="scale(0.26458333)"/> <path id="path2166" style="fill:#0068c2;fill-opacity:1;stroke-width:0.999999" d="m 268.21484,316.62109 c -2.69148,0.0233 -5.31773,0.62765 -7.29101,1.86719 -5.09691,3.20171 -6.81416,6.66837 -6.73438,13.59375 0.0261,2.26138 0.3811,4.50773 1.08399,6.77735 0.12781,-0.0462 0.25241,-0.10209 0.38086,-0.14649 0.58847,-0.20342 1.18296,-0.38716 1.7832,-0.55273 0.60024,-0.16557 1.20491,-0.31243 1.81445,-0.43946 0.60954,-0.12703 1.22347,-0.23445 1.83985,-0.32226 0.61637,-0.0878 1.23668,-0.15521 1.85742,-0.20313 0.62074,-0.0479 1.2426,-0.0767 1.86523,-0.084 0.60481,-0.007 1.20702,0.005 1.80664,0.0332 0.59963,0.0286 1.19616,0.0736 1.79102,0.13477 0.59486,0.0611 1.18682,0.13782 1.77734,0.22851 0.59052,0.0907 1.17903,0.19533 1.76563,0.3125 0.5866,0.11717 1.17276,0.2481 1.75586,0.38867 0.5831,0.14058 1.16412,0.29222 1.74414,0.45313 0.58002,0.16091 1.15897,0.32963 1.73633,0.50781 0.57735,0.17819 1.15339,0.36425 1.72851,0.55664 1.15024,0.38479 2.29566,0.79554 3.43946,1.21875 1.14379,0.42321 2.28505,0.85978 3.42578,1.29688 1.14072,0.4371 2.28086,0.87432 3.42187,1.30078 1.14102,0.42646 2.28307,0.84309 3.42774,1.23437 0.57233,0.19564 1.14679,0.38548 1.72461,0.56836 0.57781,0.18289 1.15929,0.35848 1.74218,0.52539 0.58289,0.16692 1.1683,0.32494 1.75586,0.47266 0.58756,0.14772 1.17771,0.28484 1.76953,0.41016 0.59183,0.12531 1.18557,0.23819 1.78125,0.33789 0.59569,0.0997 1.19188,0.185 1.79102,0.25586 0.59914,0.0709 1.20054,0.12721 1.80273,0.16601 0.60219,0.0388 1.20571,0.0609 1.81055,0.0645 0.1962,0.001 0.39335,-0.0126 0.58984,-0.0156 7.59899,-11.15127 8.14489,-20.83322 1.26172,-27.42773 -2.34017,-2.24198 -4.17775,-2.97178 -8.35742,-3.31836 -6.5328,-0.54176 -10.75244,1.36233 -13.94726,6.29492 -2.54431,3.92817 -3.36023,4.2504 -4.1836,1.65625 -0.31839,-1.00316 -1.9233,-3.11134 -3.5664,-4.68555 -2.38642,-2.28633 -6.46083,-3.49503 -10.39454,-3.46094 z" transform="scale(0.26458333)"/> </g> <path style="opacity:0.217903;fill:#000000;stroke-width:0.264583" d="m 117.6907,55.167612 c 3.3974,-3.611519 4.68116,-5.851859 4.68544,-8.176769 0.003,-1.84603 -0.56244,-2.8796 -1.93319,-3.53116 l -1.10693,-0.52616 1.154,0.12886 c 2.12181,0.23692 3.4672,2.32537 3.06973,4.76515 -0.29972,1.8398 -1.45824,3.62875 -3.99058,6.162149 -2.93318,2.93439 -4.3904,3.84817 -1.87847,1.17793 z m -3.32515,-9.838619 c -0.55261,-1.00155 -1.01622,-1.46267 -1.85208,-1.84213 -1.08462,-0.49238 -1.09336,-0.50628 -0.3212,-0.51097 1.48004,-0.009 3.71939,1.99915 3.50851,3.14627 -0.14371,0.78176 -0.6235,0.49674 -1.33523,-0.79317 z" id="path1178"/> <path id="path1182" style="opacity:0.367623;fill:#ffffff;stroke-width:0.264583" d="m 110.88756,44.135247 c -0.32451,-0.002 -0.67135,0.20368 -1.09244,0.62477 -1.17578,1.060007 -0.46942,5.272936 0.0554,2.595383 0.097,-0.44156 0.74063,-1.055818 1.15745,-1.363988 0.96436,-0.71298 1.12933,-0.968165 0.62115,-1.476345 -0.25035,-0.25034 -0.48916,-0.37805 -0.74156,-0.37982 z m 7.86515,0.0584 c -0.46021,-0.003 -0.94657,0.34499 -1.27537,0.98082 -0.51796,1.00164 -0.22607,1.05265 0.53237,1.05265 0.35568,0 0.70109,-0.29029 1.10939,-0.64493 0.68887,-0.59836 0.71131,-0.67624 0.30903,-1.0852 -0.20032,-0.20364 -0.43435,-0.3017 -0.67542,-0.30334 z"/> </g> </g> </svg>